HIERARCHY
ROOT Hips
{
	OFFSET 0.000000 100.481300 0.000000
	CHANNELS 6 Xposition Yposition Zposition Xrotation Yrotation Zrotation
	JOINT Spine
	{
		OFFSET -0.279200 12.230698 -2.892100
		CHANNELS 3 Xrotation Yrotation Zrotation
		JOINT Spine1
		{
			OFFSET -0.325700 14.269203 -3.374200
			CHANNELS 3 Xrotation Yrotation Zrotation
			JOINT Spine2
			{
				OFFSET -0.372300 16.307602 -0.352600
				CHANNELS 3 Xrotation Yrotation Zrotation
				JOINT Neck
				{
					OFFSET -0.418800 17.814194 8.416900
					CHANNELS 3 Xrotation Yrotation Zrotation
					JOINT Head
					{
						OFFSET 0.000000 7.031097 3.806800
						CHANNELS 3 Xrotation Yrotation Zrotation
						JOINT HeadTop_End
						{
							OFFSET 0.000000 24.646606 12.978600
							CHANNELS 3 Xrotation Yrotation Zrotation
							End Site
							{
								OFFSET 0.000000 27.854965 0.000000
							}
						}
					}
				}
				JOINT LeftShoulder
				{
					OFFSET 16.952999 14.495407 -7.737500
					CHANNELS 3 Xrotation Yrotation Zrotation
					JOINT LeftArm
					{
						OFFSET 9.308998 -2.777710 0.208600
						CHANNELS 3 Xrotation Yrotation Zrotation
						JOINT LeftForeArm
						{
							OFFSET 29.972298 0.000000 0.000000
							CHANNELS 3 Xrotation Yrotation Zrotation
							JOINT LeftHand
							{
								OFFSET 26.026505 0.000000 0.000000
								CHANNELS 3 Xrotation Yrotation Zrotation
								JOINT LeftHandThumb1
								{
									OFFSET 12.240501 -7.147949 9.207150
									CHANNELS 3 Xrotation Yrotation Zrotation
									JOINT LeftHandThumb2
									{
										OFFSET 4.138618 -2.389435 2.389433
										CHANNELS 3 Xrotation Yrotation Zrotation
										JOINT LeftHandThumb3
										{
											OFFSET 2.726913 -1.574387 1.574386
											CHANNELS 3 Xrotation Yrotation Zrotation
											JOINT LeftHandThumb4
											{
												OFFSET 3.941010 -2.275345 2.275342
												CHANNELS 3 Xrotation Yrotation Zrotation
												End Site
												{
													OFFSET -0.005798 5.087799 0.009903
												}
											}
										}
									}
								}
								JOINT LeftHandIndex1
								{
									OFFSET 24.424698 -1.985611 5.953459
									CHANNELS 3 Xrotation Yrotation Zrotation
									JOINT LeftHandIndex2
									{
										OFFSET 6.426697 0.000000 0.000000
										CHANNELS 3 Xrotation Yrotation Zrotation
										JOINT LeftHandIndex3
										{
											OFFSET 5.337898 0.000000 0.000000
											CHANNELS 3 Xrotation Yrotation Zrotation
											JOINT LeftHandIndex4
											{
												OFFSET 4.409401 0.000000 0.000000
												CHANNELS 3 Xrotation Yrotation Zrotation
												End Site
												{
													OFFSET 0.000000 4.409363 0.014373
												}
											}
										}
									}
								}
								JOINT LeftHandMiddle1
								{
									OFFSET 23.810104 0.000000 0.000000
									CHANNELS 3 Xrotation Yrotation Zrotation
									JOINT LeftHandMiddle2
									{
										OFFSET 7.176498 0.000000 0.000000
										CHANNELS 3 Xrotation Yrotation Zrotation
										JOINT LeftHandMiddle3
										{
											OFFSET 6.774902 0.000000 0.000000
											CHANNELS 3 Xrotation Yrotation Zrotation
											JOINT LeftHandMiddle4
											{
												OFFSET 5.403328 0.000000 0.000000
												CHANNELS 3 Xrotation Yrotation Zrotation
												End Site
												{
													OFFSET -0.027702 5.403244 0.017414
												}
											}
										}
									}
								}
								JOINT LeftHandRing1
								{
									OFFSET 22.908401 -0.839279 -6.020567
									CHANNELS 3 Xrotation Yrotation Zrotation
									JOINT LeftHandRing2
									{
										OFFSET 6.337502 0.000000 0.000000
										CHANNELS 3 Xrotation Yrotation Zrotation
										JOINT LeftHandRing3
										{
											OFFSET 5.779297 0.000000 0.000000
											CHANNELS 3 Xrotation Yrotation Zrotation
											JOINT LeftHandRing4
											{
												OFFSET 4.965698 0.000000 0.000000
												CHANNELS 3 Xrotation Yrotation Zrotation
												End Site
												{
													OFFSET 0.000000 4.965668 0.016186
												}
											}
										}
									}
								}
								JOINT LeftHandPinky1
								{
									OFFSET 20.037003 -1.530319 -10.950146
									CHANNELS 3 Xrotation Yrotation Zrotation
									JOINT LeftHandPinky2
									{
										OFFSET 5.254700 0.000000 0.000000
										CHANNELS 3 Xrotation Yrotation Zrotation
										JOINT LeftHandPinky3
										{
											OFFSET 4.810204 0.000000 0.000000
											CHANNELS 3 Xrotation Yrotation Zrotation
											JOINT LeftHandPinky4
											{
												OFFSET 3.647202 0.000000 0.000000
												CHANNELS 3 Xrotation Yrotation Zrotation
												End Site
												{
													OFFSET 0.000000 3.647186 0.011889
												}
											}
										}
									}
								}
							}
						}
					}
				}
				JOINT RightShoulder
				{
					OFFSET -15.141001 14.495407 -7.737500
					CHANNELS 3 Xrotation Yrotation Zrotation
					JOINT RightArm
					{
						OFFSET -9.308998 -2.777710 0.208500
						CHANNELS 3 Xrotation Yrotation Zrotation
						JOINT RightForeArm
						{
							OFFSET -29.972300 0.000000 0.000000
							CHANNELS 3 Xrotation Yrotation Zrotation
							JOINT RightHand
							{
								OFFSET -26.026505 0.000000 0.000000
								CHANNELS 3 Xrotation Yrotation Zrotation
								JOINT RightHandThumb1
								{
									OFFSET -12.240601 -7.148026 9.207092
									CHANNELS 3 Xrotation Yrotation Zrotation
									JOINT RightHandThumb2
									{
										OFFSET -4.138618 -2.389435 2.389433
										CHANNELS 3 Xrotation Yrotation Zrotation
										JOINT RightHandThumb3
										{
											OFFSET -2.726974 -1.574417 1.574421
											CHANNELS 3 Xrotation Yrotation Zrotation
											JOINT RightHandThumb4
											{
												OFFSET -3.941010 -2.275345 2.275343
												CHANNELS 3 Xrotation Yrotation Zrotation
												End Site
												{
													OFFSET 0.005814 5.087799 0.009927
												}
											}
										}
									}
								}
								JOINT RightHandIndex1
								{
									OFFSET -24.424698 -1.985657 5.953444
									CHANNELS 3 Xrotation Yrotation Zrotation
									JOINT RightHandIndex2
									{
										OFFSET -6.426697 0.000000 0.000000
										CHANNELS 3 Xrotation Yrotation Zrotation
										JOINT RightHandIndex3
										{
											OFFSET -5.337898 0.000000 0.000000
											CHANNELS 3 Xrotation Yrotation Zrotation
											JOINT RightHandIndex4
											{
												OFFSET -4.409401 0.000000 0.000000
												CHANNELS 3 Xrotation Yrotation Zrotation
												End Site
												{
													OFFSET 0.000000 4.409363 0.014408
												}
											}
										}
									}
								}
								JOINT RightHandMiddle1
								{
									OFFSET -23.810097 0.000000 0.000000
									CHANNELS 3 Xrotation Yrotation Zrotation
									JOINT RightHandMiddle2
									{
										OFFSET -7.176498 0.000000 0.000000
										CHANNELS 3 Xrotation Yrotation Zrotation
										JOINT RightHandMiddle3
										{
											OFFSET -6.774902 0.000000 0.000000
											CHANNELS 3 Xrotation Yrotation Zrotation
											JOINT RightHandMiddle4
											{
												OFFSET -5.403328 0.000000 0.000000
												CHANNELS 3 Xrotation Yrotation Zrotation
												End Site
												{
													OFFSET 0.027702 5.403244 0.017457
												}
											}
										}
									}
								}
								JOINT RightHandRing1
								{
									OFFSET -22.908302 -0.839325 -6.020576
									CHANNELS 3 Xrotation Yrotation Zrotation
									JOINT RightHandRing2
									{
										OFFSET -6.337502 0.000000 0.000000
										CHANNELS 3 Xrotation Yrotation Zrotation
										JOINT RightHandRing3
										{
											OFFSET -5.779297 0.000000 0.000000
											CHANNELS 3 Xrotation Yrotation Zrotation
											JOINT RightHandRing4
											{
												OFFSET -4.965698 0.000000 0.000000
												CHANNELS 3 Xrotation Yrotation Zrotation
												End Site
												{
													OFFSET 0.000000 4.965668 0.016226
												}
											}
										}
									}
								}
								JOINT RightHandPinky1
								{
									OFFSET -20.037003 -1.530334 -10.950259
									CHANNELS 3 Xrotation Yrotation Zrotation
									JOINT RightHandPinky2
									{
										OFFSET -5.254700 0.000000 0.000000
										CHANNELS 3 Xrotation Yrotation Zrotation
										JOINT RightHandPinky3
										{
											OFFSET -4.810204 0.000000 0.000000
											CHANNELS 3 Xrotation Yrotation Zrotation
											JOINT RightHandPinky4
											{
												OFFSET -3.647202 0.000000 0.000000
												CHANNELS 3 Xrotation Yrotation Zrotation
												End Site
												{
													OFFSET 0.000000 3.647186 0.011917
												}
											}
										}
									}
								}
							}
						}
					}
				}
			}
		}
	}
	JOINT LeftUpLeg
	{
		OFFSET 15.427100 -6.655098 0.678600
		CHANNELS 3 Xrotation Yrotation Zrotation
		JOINT LeftLeg
		{
			OFFSET 4.081073 -39.591068 13.024000
			CHANNELS 3 Xrotation Yrotation Zrotation
			JOINT LeftFoot
			{
				OFFSET -4.081074 -37.707932 -15.979700
				CHANNELS 3 Xrotation Yrotation Zrotation
				JOINT LeftToeBase
				{
					OFFSET 5.346399 -15.068900 20.645000
					CHANNELS 3 Xrotation Yrotation Zrotation
					JOINT LeftToe_End
					{
						OFFSET 2.754700 0.931300 11.300900
						CHANNELS 3 Xrotation Yrotation Zrotation
						End Site
						{
							OFFSET 0.000000 11.669021 0.000000
						}
					}
				}
			}
		}
	}
	JOINT RightUpLeg
	{
		OFFSET -15.569500 -6.655098 0.678600
		CHANNELS 3 Xrotation Yrotation Zrotation
		JOINT RightLeg
		{
			OFFSET -4.081825 -39.591045 13.023800
			CHANNELS 3 Xrotation Yrotation Zrotation
			JOINT RightFoot
			{
				OFFSET 4.081824 -37.707954 -15.979600
				CHANNELS 3 Xrotation Yrotation Zrotation
				JOINT RightToeBase
				{
					OFFSET -5.346400 -15.068900 20.645000
					CHANNELS 3 Xrotation Yrotation Zrotation
					JOINT RightToe_End
					{
						OFFSET -2.754700 0.931300 11.300900
						CHANNELS 3 Xrotation Yrotation Zrotation
						End Site
						{
							OFFSET 0.000000 11.669021 0.000000
						}
					}
				}
			}
		}
	}
}
MOTION
Frames: 6
Frame Time: 0.033333
2.195312 72.838882 -1.714860 -5.400169 -46.432121 -0.526714 9.420056 7.435547 -1.366642 2.187716 0.989897 -0.915629 2.202828 0.982775 -0.894153 0.084651 13.220554 4.538678 8.920929 20.138142 -4.130235 0.000000 0.000000 -0.000001 1.117180 3.546344 -8.633308 -53.487013 4.935511 -51.503004 0.000214 -106.358087 0.000221 1.988598 -7.706163 -15.869262 -6.141223 -11.690800 -6.761697 9.914125 42.595519 3.409852 -0.422802 8.108092 27.509118 -0.000003 0.000002 -0.000002 0.255319 3.378217 -45.814331 5.654092 5.847753 -88.067435 2.162139 4.544810 -50.866379 -0.000001 0.000000 -0.000001 -0.461475 3.841593 -39.722683 6.450757 5.820351 -95.892871 2.182885 4.561569 -51.127733 0.000000 -0.000001 0.000004 0.469723 4.966829 -39.799444 8.181043 5.368620 -113.502998 3.200490 5.218116 -63.022968 0.000000 -0.000001 0.000000 -3.762429 9.063683 -45.253821 5.342526 5.829014 -85.005276 8.716837 5.103330 -119.369181 -0.000001 0.000001 0.000002 3.036128 13.027194 -5.371406 -48.713722 27.172834 83.457077 0.000131 105.988280 -0.000130 -8.345373 17.548096 8.775689 -7.341098 13.749656 7.412319 9.855793 -44.489089 -3.903254 -0.115787 -14.513088 -28.973881 -0.000001 0.000002 -0.000000 -0.124376 -2.384789 45.108857 4.500585 -4.654540 88.071164 1.723225 -3.618376 50.920098 -0.000003 -0.000002 -0.000004 -0.761626 -2.932908 39.031068 5.133889 -4.632766 95.881649 1.739750 -3.631702 51.181374 0.000001 0.000001 0.000005 0.154756 -4.068814 39.122688 6.509729 -4.273601 113.462877 2.549584 -4.153922 63.067344 -0.000000 -0.000001 -0.000001 -4.198871 -8.025510 44.637783 4.252906 -4.639630 85.014818 6.935961 -4.062626 119.322298 -0.000003 0.000000 -0.000000 -34.255885 5.085882 20.300649 56.771890 -7.633898 3.672747 -20.132698 -7.078605 -17.222831 -1.594039 0.000002 0.000002 0.000000 0.000002 0.000000 -19.408333 -8.979614 -34.668186 57.007815 -2.876802 -4.765847 -26.306323 -10.338076 26.247731 -0.012999 -0.000014 -0.000004 -0.000000 0.000001 -0.000000 
2.274515 72.860718 -1.482323 -4.952829 -46.066515 -0.265509 9.211874 7.441942 -2.045993 2.268852 0.983274 -0.929271 2.284435 0.977321 -0.907004 0.134440 13.038399 4.580289 8.873678 19.657426 -4.036057 -0.000000 0.000000 0.000000 1.052679 3.665081 -8.634188 -53.320183 4.466919 -51.434104 -0.000003 -106.684386 0.000008 2.240476 -7.138583 -15.815329 -6.141223 -11.690801 -6.761694 9.914130 42.595522 3.409854 -0.422795 8.108085 27.509120 -0.000001 0.000001 0.000000 0.255321 3.378219 -45.814334 5.654091 5.847751 -88.067435 2.162141 4.544809 -50.866372 0.000000 -0.000002 -0.000001 -0.461475 3.841596 -39.722686 6.450757 5.820353 -95.892878 2.182886 4.561571 -51.127733 -0.000000 0.000001 0.000000 0.469724 4.966830 -39.799444 8.181042 5.368620 -113.502998 3.200489 5.218116 -63.022975 0.000001 0.000001 0.000000 -3.762426 9.063681 -45.253818 5.342526 5.829014 -85.005276 8.716839 5.103335 -119.369181 -0.000001 0.000001 0.000000 2.990833 12.979909 -5.420106 -48.223717 26.640311 82.817826 0.000030 107.249796 -0.000023 -8.764986 15.926379 8.446475 -7.341099 13.749652 7.412320 9.855794 -44.489089 -3.903254 -0.115785 -14.513093 -28.973878 0.000001 -0.000000 -0.000000 -0.124378 -2.384790 45.108861 4.500591 -4.654538 88.071157 1.723223 -3.618376 50.920098 -0.000001 -0.000000 0.000001 -0.761625 -2.932908 39.031068 5.133893 -4.632764 95.881656 1.739749 -3.631702 51.181374 0.000001 -0.000002 0.000002 0.154756 -4.068814 39.122682 6.509734 -4.273601 113.462884 2.549585 -4.153923 63.067337 -0.000000 -0.000003 0.000001 -4.198871 -8.025509 44.637779 4.252908 -4.639629 85.014818 6.935963 -4.062625 119.322298 -0.000000 0.000000 -0.000001 -35.089185 4.723445 19.915908 57.407658 -6.996444 3.979225 -19.562027 -7.556622 -17.314220 -2.968274 -0.000006 0.000002 0.000000 0.000001 -0.000000 -18.518352 -8.129336 -34.289728 56.652878 -2.616603 -4.092851 -26.193825 -11.676131 26.215571 0.033537 0.000018 0.027721 -0.000000 0.000000 -0.000000 
2.354894 73.006020 -1.147627 -4.484443 -44.758045 0.021007 8.889430 7.486865 -2.690421 2.360161 0.979532 -0.910539 2.375041 0.975271 -0.887177 0.273429 12.694448 4.606040 9.014467 18.805898 -3.866535 0.000002 0.000001 0.000000 0.967946 3.825219 -8.638534 -52.825721 3.473439 -51.783226 0.000254 -106.731384 0.000258 2.858161 -6.586056 -15.626593 -6.141225 -11.690797 -6.761701 9.914124 42.595529 3.409846 -0.422799 8.108089 27.509121 0.000001 -0.000001 0.000001 0.255318 3.378221 -45.814331 5.654091 5.847751 -88.067435 2.162140 4.544813 -50.866376 0.000000 -0.000001 0.000001 -0.461478 3.841597 -39.722686 6.450756 5.820351 -95.892871 2.182886 4.561569 -51.127729 0.000001 0.000001 -0.000001 0.469722 4.966832 -39.799444 8.181039 5.368618 -113.502998 3.200490 5.218114 -63.022968 -0.000000 -0.000000 0.000000 -3.762432 9.063688 -45.253821 5.342524 5.829012 -85.005276 8.716840 5.103335 -119.369181 -0.000001 0.000000 -0.000001 2.959805 12.921060 -5.437280 -47.055048 25.817318 81.687075 -0.000059 108.777914 0.000062 -9.135307 14.396581 7.911385 -7.341098 13.749658 7.412322 9.855791 -44.489089 -3.903248 -0.115786 -14.513086 -28.973878 -0.000002 -0.000001 -0.000000 -0.124378 -2.384787 45.108861 4.500587 -4.654540 88.071164 1.723225 -3.618376 50.920095 0.000001 0.000000 -0.000002 -0.761627 -2.932905 39.031068 5.133889 -4.632763 95.881656 1.739749 -3.631699 51.181374 -0.000001 0.000001 -0.000001 0.154754 -4.068814 39.122685 6.509733 -4.273601 113.462877 2.549585 -4.153923 63.067344 0.000000 -0.000000 0.000002 -4.198871 -8.025506 44.637779 4.252910 -4.639630 85.014818 6.935961 -4.062624 119.322298 -0.000001 0.000000 -0.000000 -36.653169 4.306517 19.253805 58.186163 -6.438789 4.379236 -18.101106 -9.020549 -17.044981 -5.399435 0.000003 -0.000003 0.000000 0.000001 -0.000000 -16.972754 -7.992829 -34.049422 55.832398 -2.161055 -3.214117 -26.119048 -13.589207 26.060657 -0.140019 -0.000029 -0.000006 0.000000 0.000001 -0.000000 
2.555361 73.110558 -0.723426 -4.016265 -42.704689 0.270490 8.458246 7.562134 -3.362540 2.436785 0.980002 -0.838984 2.449333 0.978410 -0.814345 0.473764 12.192605 4.670129 9.344805 17.608991 -3.563393 -0.000000 0.000000 -0.000001 0.846559 4.042079 -8.637766 -51.944333 1.929754 -52.529107 0.000301 -106.812459 0.000316 3.860497 -5.913080 -15.329492 -6.141221 -11.690799 -6.761696 9.914127 42.595522 3.409843 -0.422799 8.108092 27.509121 -0.000002 -0.000003 0.000001 0.255318 3.378219 -45.814341 5.654093 5.847752 -88.067435 2.162142 4.544813 -50.866376 0.000000 0.000001 -0.000002 -0.461474 3.841596 -39.722690 6.450752 5.820353 -95.892871 2.182885 4.561568 -51.127733 -0.000001 0.000002 0.000003 0.469722 4.966829 -39.799444 8.181043 5.368621 -113.502998 3.200488 5.218116 -63.022968 -0.000001 -0.000001 0.000000 -3.762428 9.063684 -45.253821 5.342529 5.829013 -85.005283 8.716839 5.103331 -119.369181 0.000001 0.000001 -0.000001 2.956335 12.848240 -5.399276 -45.187719 24.523536 80.063197 0.000177 110.575374 -0.000173 -9.581932 13.093169 7.181313 -7.341097 13.749656 7.412324 9.855796 -44.489089 -3.903252 -0.115788 -14.513093 -28.973881 0.000001 -0.000003 0.000001 -0.124376 -2.384787 45.108857 4.500582 -4.654540 88.071157 1.723224 -3.618375 50.920098 0.000000 -0.000000 0.000001 -0.761625 -2.932906 39.031068 5.133885 -4.632766 95.881656 1.739748 -3.631699 51.181374 -0.000001 -0.000001 -0.000002 0.154756 -4.068815 39.122685 6.509730 -4.273603 113.462877 2.549585 -4.153922 63.067344 0.000002 0.000002 -0.000002 -4.198872 -8.025511 44.637783 4.252915 -4.639629 85.014818 6.935960 -4.062625 119.322298 0.000001 0.000000 -0.000000 -38.551391 3.827536 18.685709 59.112364 -5.272754 4.761252 -16.691813 -11.200736 -17.500970 -7.339598 0.000017 0.000001 -0.000000 0.000001 0.000000 -14.933754 -8.181563 -33.848720 54.798963 -1.683724 -2.204111 -26.034868 -16.034921 26.002358 -0.492298 0.000029 0.000012 -0.000000 0.000000 -0.000000 
2.752754 73.268883 -0.147393 -3.559769 -40.140349 0.466889 7.960546 7.690874 -4.136776 2.465717 0.984890 -0.723745 2.476436 0.986515 -0.698384 0.669555 11.566166 4.836486 9.780713 16.158588 -3.082430 0.000001 -0.000000 -0.000001 0.681629 4.320773 -8.624259 -50.740956 -0.228533 -53.594210 0.000197 -107.122781 0.000203 5.209248 -5.113372 -14.970994 -6.141221 -11.690799 -6.761696 9.914126 42.595525 3.409850 -0.422799 8.108090 27.509123 0.000003 0.000000 -0.000003 0.255318 3.378219 -45.814334 5.654093 5.847753 -88.067435 2.162142 4.544813 -50.866379 0.000001 -0.000003 -0.000002 -0.461477 3.841597 -39.722683 6.450759 5.820352 -95.892871 2.182885 4.561567 -51.127736 -0.000001 0.000003 0.000005 0.469722 4.966832 -39.799444 8.181040 5.368619 -113.502998 3.200489 5.218119 -63.022968 -0.000001 -0.000001 -0.000001 -3.762430 9.063687 -45.253818 5.342528 5.829015 -85.005276 8.716837 5.103333 -119.369181 0.000000 -0.000000 -0.000001 2.981076 12.768021 -5.310130 -42.702739 22.588675 78.097250 0.000091 112.587206 -0.000102 -10.223139 12.123655 6.344477 -7.341096 13.749652 7.412322 9.855796 -44.489089 -3.903251 -0.115782 -14.513086 -28.973878 0.000001 -0.000006 -0.000000 -0.124375 -2.384788 45.108864 4.500583 -4.654540 88.071164 1.723227 -3.618378 50.920098 0.000001 -0.000001 0.000003 -0.761624 -2.932911 39.031068 5.133891 -4.632764 95.881649 1.739748 -3.631700 51.181370 -0.000001 -0.000002 -0.000004 0.154757 -4.068818 39.122682 6.509732 -4.273599 113.462877 2.549584 -4.153925 63.067344 -0.000003 -0.000001 0.000004 -4.198869 -8.025512 44.637783 4.252913 -4.639630 85.014818 6.935963 -4.062623 119.322298 -0.000001 0.000000 0.000000 -41.235737 3.012198 18.209964 60.290346 -5.619105 4.591692 -14.000123 -13.236678 -17.967888 -6.295099 -0.000005 -0.000007 -0.000000 -0.000002 -0.000000 -12.356350 -8.677723 -33.394267 53.391691 -1.290195 -1.295394 -25.917313 -18.988165 26.083727 -0.839426 0.000007 0.000007 0.000000 0.000001 -0.000001 
2.964043 73.379501 0.537759 -3.116565 -37.276826 0.611327 7.406591 7.868403 -4.977562 2.430174 0.993806 -0.601241 2.442242 0.997973 -0.576312 0.796924 10.871641 5.129255 10.190556 14.577089 -2.444447 -0.000000 0.000000 0.000000 0.480916 4.650929 -8.594968 -49.436441 -2.970541 -54.845528 0.000046 -107.470281 0.000052 6.863670 -4.362984 -14.555685 -6.141222 -11.690799 -6.761696 9.914125 42.595519 3.409844 -0.422798 8.108091 27.509118 0.000001 -0.000001 0.000002 0.255321 3.378218 -45.814331 5.654092 5.847750 -88.067435 2.162140 4.544812 -50.866379 -0.000000 0.000002 -0.000003 -0.461473 3.841598 -39.722683 6.450760 5.820349 -95.892871 2.182886 4.561567 -51.127733 0.000001 -0.000002 0.000004 0.469723 4.966830 -39.799444 8.181043 5.368624 -113.502998 3.200487 5.218113 -63.022968 0.000000 0.000002 0.000000 -3.762428 9.063688 -45.253821 5.342524 5.829015 -85.005276 8.716838 5.103329 -119.369181 -0.000000 0.000000 0.000001 3.045322 12.709403 -5.169843 -39.852631 20.025910 76.075685 -0.000016 114.668767 0.000014 -11.076412 11.378192 5.584922 -7.341093 13.749653 7.412324 9.855794 -44.489089 -3.903246 -0.115787 -14.513086 -28.973884 -0.000002 -0.000002 -0.000002 -0.124375 -2.384790 45.108864 4.500583 -4.654539 88.071164 1.723223 -3.618378 50.920098 -0.000001 0.000000 0.000001 -0.761623 -2.932910 39.031068 5.133889 -4.632763 95.881649 1.739752 -3.631707 51.181370 0.000000 0.000000 0.000000 0.154757 -4.068818 39.122682 6.509728 -4.273604 113.462884 2.549582 -4.153923 63.067344 -0.000002 -0.000001 0.000002 -4.198868 -8.025510 44.637779 4.252907 -4.639628 85.014818 6.935961 -4.062621 119.322298 0.000000 -0.000000 0.000000 -44.069108 2.290071 17.441682 61.413229 -6.309231 4.279465 -11.022184 -14.449646 -18.136056 -6.923934 -0.034753 1.174666 0.000000 -0.000001 -0.000000 -9.534473 -9.381491 -32.690853 51.854745 -1.223528 -0.682914 -25.734584 -22.070390 26.553493 -1.227943 0.000015 0.000018 0.000000 -0.000001 -0.000001 
